<svg xmlns="http://www.w3.org/2000/svg" xmlns:xlink="http://www.w3.org/1999/xlink" width="40" zoomAndPan="magnify" viewBox="0 0 30 30.000001" height="40" preserveAspectRatio="xMidYMid meet" version="1.0"><defs><clipPath id="453f305a6e"><path d="M 3.386719 12.132812 L 6.941406 12.132812 L 6.941406 13.113281 L 3.386719 13.113281 Z M 3.386719 12.132812 " clip-rule="nonzero"/></clipPath><clipPath id="080dac54ed"><path d="M 6.066406 12.132812 C 5.890625 12.132812 5.714844 12.136719 5.539062 12.136719 L 3.882812 12.140625 C 3.601562 12.144531 3.386719 12.367188 3.386719 12.621094 L 3.386719 12.628906 C 3.386719 12.632812 3.386719 12.640625 3.386719 12.648438 C 3.402344 12.925781 3.585938 13.101562 3.890625 13.105469 L 5.140625 13.105469 C 5.386719 13.105469 5.632812 13.113281 5.878906 13.113281 C 6.074219 13.113281 6.273438 13.109375 6.46875 13.097656 C 6.597656 13.089844 6.765625 13.003906 6.84375 12.898438 C 7.078125 12.578125 6.851562 12.164062 6.433594 12.140625 C 6.308594 12.132812 6.1875 12.132812 6.066406 12.132812 Z M 6.066406 12.132812 " clip-rule="nonzero"/></clipPath><clipPath id="17896307e0"><path d="M 11.296875 24.441406 L 18.441406 24.441406 L 18.441406 25.621094 L 11.296875 25.621094 Z M 11.296875 24.441406 " clip-rule="nonzero"/></clipPath><clipPath id="d2ba621973"><path d="M 14.890625 24.441406 L 17.800781 24.441406 C 18.183594 24.441406 18.425781 24.664062 18.441406 25.011719 C 18.457031 25.324219 18.171875 25.597656 17.808594 25.617188 L 17.195312 25.621094 C 15.503906 25.617188 13.8125 25.617188 12.121094 25.617188 C 11.992188 25.617188 11.863281 25.609375 11.742188 25.578125 C 11.460938 25.507812 11.273438 25.242188 11.304688 24.972656 C 11.335938 24.65625 11.554688 24.445312 11.878906 24.445312 Z M 14.890625 24.441406 " clip-rule="nonzero"/></clipPath><clipPath id="8eb41ae303"><path d="M 12.863281 26.488281 L 16.875 26.488281 L 16.875 27.660156 L 12.863281 27.660156 Z M 12.863281 26.488281 " clip-rule="nonzero"/></clipPath><clipPath id="ae53d69eb6"><path d="M 14.898438 26.492188 L 16.273438 26.492188 C 16.640625 26.496094 16.871094 26.722656 16.871094 27.070312 C 16.875 27.429688 16.660156 27.65625 16.285156 27.660156 L 13.480469 27.660156 C 13.082031 27.65625 12.863281 27.425781 12.867188 27.066406 C 12.871094 26.699219 13.089844 26.496094 13.496094 26.492188 L 14.898438 26.492188 " clip-rule="nonzero"/></clipPath><clipPath id="090a0f4f71"><path d="M 13.855469 7.132812 L 22.53125 7.132812 L 22.53125 22.394531 L 13.855469 22.394531 Z M 13.855469 7.132812 " clip-rule="nonzero"/></clipPath><clipPath id="41e4204d08"><path d="M 19.007812 15.113281 C 19.003906 12.652344 17.417969 10.882812 15.347656 10.640625 C 14.773438 10.574219 14.378906 10.191406 14.367188 9.679688 C 14.355469 9.132812 14.691406 8.734375 15.296875 8.65625 C 15.875 8.578125 16.265625 8.289062 16.5 7.765625 C 16.550781 7.65625 16.605469 7.550781 16.675781 7.453125 C 16.890625 7.148438 17.171875 7.066406 17.515625 7.203125 C 17.777344 7.308594 18.039062 7.410156 18.289062 7.53125 C 18.671875 7.714844 18.753906 7.953125 18.664062 8.363281 C 18.589844 8.722656 18.554688 9.09375 18.5 9.457031 L 18.503906 9.511719 C 18.878906 10.226562 19.371094 10.808594 20.136719 11.054688 C 20.355469 11.125 20.632812 11.027344 20.882812 10.988281 C 21.023438 10.964844 21.160156 10.90625 21.300781 10.871094 C 21.648438 10.792969 21.875 10.894531 22.035156 11.21875 C 22.175781 11.507812 22.296875 11.804688 22.414062 12.105469 C 22.527344 12.402344 22.449219 12.65625 22.183594 12.839844 C 22.023438 12.953125 21.847656 13.042969 21.679688 13.140625 C 21.238281 13.390625 20.976562 13.746094 20.988281 14.273438 C 20.996094 14.636719 20.980469 15.007812 21.003906 15.371094 C 21.03125 15.746094 21.25 16.015625 21.558594 16.210938 L 22.109375 16.527344 C 22.472656 16.75 22.5625 17 22.417969 17.394531 L 22.109375 18.148438 C 21.925781 18.539062 21.65625 18.652344 21.234375 18.546875 C 20.964844 18.476562 20.691406 18.40625 20.417969 18.371094 C 20.105469 18.332031 19.832031 18.460938 19.605469 18.675781 C 19.355469 18.917969 19.105469 19.160156 18.867188 19.417969 C 18.542969 19.765625 18.429688 20.171875 18.59375 20.640625 L 18.734375 21.128906 C 18.828125 21.511719 18.726562 21.753906 18.375 21.929688 C 18.097656 22.066406 17.804688 22.191406 17.511719 22.296875 C 17.183594 22.414062 16.933594 22.316406 16.742188 22.019531 L 16.40625 21.453125 C 16.15625 21.070312 15.804688 20.867188 15.339844 20.867188 C 15.078125 20.867188 14.800781 20.878906 14.5625 20.796875 C 14.039062 20.609375 13.800781 20.136719 13.90625 19.617188 C 13.996094 19.183594 14.417969 18.84375 14.929688 18.863281 C 15.828125 18.890625 16.621094 18.605469 17.328125 18.078125 C 18.441406 17.242188 18.988281 16.109375 19.007812 15.113281 " clip-rule="nonzero"/></clipPath><clipPath id="b0be52fa6e"><path d="M 8.242188 6.574219 L 15.386719 6.574219 L 15.386719 23.464844 L 8.242188 23.464844 Z M 8.242188 6.574219 " clip-rule="nonzero"/></clipPath><clipPath id="a8b1be94ae"><path d="M 13.648438 23.386719 C 13.214844 23.386719 12.777344 23.421875 12.347656 23.378906 C 11.695312 23.308594 11.183594 22.824219 11.113281 22.175781 C 10.984375 20.941406 10.554688 19.800781 10.085938 18.671875 C 9.730469 17.820312 9.339844 16.980469 8.925781 16.152344 C 8.363281 15.027344 8.171875 13.847656 8.273438 12.597656 C 8.5 9.777344 10.640625 7.367188 13.355469 6.742188 C 13.792969 6.644531 14.246094 6.617188 14.691406 6.578125 C 14.953125 6.554688 15.179688 6.65625 15.300781 6.910156 C 15.40625 7.128906 15.402344 7.363281 15.234375 7.527344 C 15.113281 7.644531 14.914062 7.734375 14.746094 7.742188 C 13.59375 7.800781 12.546875 8.136719 11.628906 8.84375 C 10.550781 9.671875 9.832031 10.738281 9.539062 12.070312 C 9.269531 13.296875 9.394531 14.484375 9.980469 15.609375 C 10.832031 17.238281 11.542969 18.921875 12.042969 20.691406 C 12.148438 21.066406 12.199219 21.457031 12.257812 21.839844 C 12.304688 22.140625 12.386719 22.242188 12.703125 22.246094 L 14.71875 22.246094 C 15.109375 22.25 15.371094 22.488281 15.367188 22.835938 C 15.367188 23.164062 15.09375 23.410156 14.722656 23.417969 L 13.648438 23.417969 Z M 13.648438 23.386719 " clip-rule="nonzero"/></clipPath><clipPath id="6ea6d1ae4a"><path d="M 11.863281 11.625 L 18.039062 11.625 L 18.039062 17.851562 L 11.863281 17.851562 Z M 11.863281 11.625 " clip-rule="nonzero"/></clipPath><clipPath id="86545f9a4b"><path d="M 16.617188 14.726562 C 16.621094 13.8125 15.863281 13.054688 14.953125 13.0625 C 14.039062 13.070312 13.28125 13.824219 13.285156 14.738281 C 13.292969 15.609375 13.953125 16.425781 14.976562 16.410156 C 16.082031 16.394531 16.660156 15.492188 16.617188 14.726562 M 17.261719 13.253906 C 17.273438 13.253906 17.328125 13.234375 17.386719 13.230469 C 17.515625 13.222656 17.714844 13.171875 17.753906 13.226562 C 17.867188 13.40625 17.941406 13.617188 17.984375 13.828125 C 17.996094 13.882812 17.859375 13.988281 17.773438 14.046875 C 17.429688 14.273438 17.277344 14.714844 17.460938 15.085938 C 17.523438 15.214844 17.671875 15.316406 17.796875 15.40625 C 18.03125 15.566406 18.058594 15.652344 17.933594 15.96875 C 17.84375 16.179688 17.75 16.355469 17.464844 16.238281 C 16.933594 16.015625 16.226562 16.738281 16.492188 17.253906 C 16.585938 17.4375 16.503906 17.570312 16.3125 17.65625 C 15.855469 17.863281 15.859375 17.867188 15.589844 17.453125 C 15.328125 17.042969 14.59375 17.070312 14.332031 17.5 C 14.113281 17.855469 14.09375 17.863281 13.707031 17.703125 C 13.40625 17.578125 13.367188 17.519531 13.46875 17.199219 C 13.578125 16.847656 13.394531 16.636719 13.167969 16.425781 C 12.964844 16.230469 12.75 16.144531 12.476562 16.269531 C 12.285156 16.359375 12.140625 16.3125 12.042969 16.105469 C 11.863281 15.734375 11.871094 15.609375 12.089844 15.460938 C 12.488281 15.195312 12.578125 14.957031 12.492188 14.5 C 12.445312 14.265625 12.292969 14.15625 12.105469 14.058594 C 11.878906 13.941406 11.855469 13.835938 11.972656 13.527344 C 12.09375 13.210938 12.167969 13.164062 12.425781 13.230469 C 12.863281 13.339844 13.367188 13.0625 13.476562 12.632812 C 13.503906 12.519531 13.460938 12.378906 13.421875 12.261719 C 13.347656 12.035156 13.390625 11.882812 13.632812 11.808594 L 13.84375 11.71875 C 14.015625 11.636719 14.128906 11.6875 14.226562 11.847656 C 14.492188 12.285156 14.742188 12.40625 15.222656 12.265625 C 15.367188 12.222656 15.503906 12.066406 15.601562 11.929688 C 15.800781 11.644531 15.863281 11.613281 16.207031 11.769531 C 16.5 11.902344 16.542969 11.996094 16.445312 12.304688 C 16.316406 12.710938 16.765625 13.269531 17.261719 13.253906 " clip-rule="nonzero"/></clipPath><clipPath id="956289ee14"><path d="M 6.605469 4.328125 L 9.414062 4.328125 L 9.414062 7.183594 L 6.605469 7.183594 Z M 6.605469 4.328125 " clip-rule="nonzero"/></clipPath><clipPath id="94f46bda0f"><path d="M 9.410156 6.632812 C 9.402344 7.023438 8.976562 7.273438 8.703125 7.109375 L 8.5 6.957031 C 7.929688 6.394531 7.363281 5.835938 6.800781 5.265625 C 6.511719 4.972656 6.554688 4.617188 6.878906 4.429688 C 7.074219 4.316406 7.261719 4.347656 7.414062 4.496094 L 9.269531 6.355469 C 9.351562 6.441406 9.382812 6.574219 9.410156 6.632812 " clip-rule="nonzero"/></clipPath><clipPath id="535aa8570f"><path d="M 20.335938 4.328125 L 23.140625 4.328125 L 23.140625 7.238281 L 20.335938 7.238281 Z M 20.335938 4.328125 " clip-rule="nonzero"/></clipPath><clipPath id="ca42ef7cae"><path d="M 20.78125 7.234375 C 20.632812 7.09375 20.449219 6.992188 20.386719 6.84375 C 20.335938 6.71875 20.367188 6.488281 20.457031 6.382812 C 20.738281 6.046875 21.066406 5.746094 21.378906 5.429688 L 22.25 4.570312 C 22.53125 4.308594 22.769531 4.300781 22.984375 4.523438 C 23.191406 4.738281 23.179688 5.019531 22.933594 5.269531 L 21.269531 6.925781 C 21.144531 7.042969 20.976562 7.113281 20.78125 7.234375 " clip-rule="nonzero"/></clipPath><clipPath id="36b87adac0"><path d="M 22.785156 12.085938 L 26.359375 12.085938 L 26.359375 13.15625 L 22.785156 13.15625 Z M 22.785156 12.085938 " clip-rule="nonzero"/></clipPath><clipPath id="ea1d9841ce"><path d="M 23.808594 12.132812 C 23.734375 12.132812 23.660156 12.132812 23.585938 12.132812 L 23.253906 12.140625 C 22.984375 12.175781 22.792969 12.394531 22.804688 12.640625 C 22.816406 12.917969 23.007812 13.101562 23.296875 13.105469 L 24.546875 13.109375 L 25.871094 13.105469 C 26.140625 13.101562 26.328125 12.929688 26.355469 12.675781 C 26.378906 12.449219 26.203125 12.214844 25.953125 12.160156 C 25.855469 12.140625 25.75 12.136719 25.652344 12.136719 C 25.039062 12.136719 24.421875 12.132812 23.808594 12.132812 Z M 23.808594 12.132812 " clip-rule="nonzero"/></clipPath><clipPath id="463a1874a2"><path d="M 14.363281 1.621094 L 15.386719 1.621094 L 15.386719 5.144531 L 14.363281 5.144531 Z M 14.363281 1.621094 " clip-rule="nonzero"/></clipPath><clipPath id="9820d30083"><path d="M 14.898438 1.621094 C 14.78125 1.625 14.652344 1.65625 14.566406 1.714844 C 14.460938 1.789062 14.386719 1.988281 14.382812 2.132812 C 14.367188 2.945312 14.371094 3.761719 14.371094 4.578125 L 14.390625 4.703125 C 14.453125 4.984375 14.621094 5.136719 14.863281 5.136719 C 14.882812 5.136719 14.902344 5.136719 14.921875 5.132812 C 15.171875 5.109375 15.335938 4.914062 15.339844 4.621094 L 15.339844 3.421875 L 15.34375 3.421875 C 15.34375 2.957031 15.363281 2.488281 15.332031 2.023438 C 15.320312 1.886719 15.183594 1.695312 15.058594 1.648438 C 15.015625 1.632812 14.960938 1.625 14.902344 1.621094 Z M 14.898438 1.621094 " clip-rule="nonzero"/></clipPath></defs><g clip-path="url(#453f305a6e)"><g clip-path="url(#080dac54ed)"><path fill="#0a008e" d="M 3.386719 12.132812 L 6.9375 12.132812 L 6.9375 13.113281 L 3.386719 13.113281 Z M 3.386719 12.132812 " fill-opacity="1" fill-rule="nonzero"/></g></g><g clip-path="url(#17896307e0)"><g clip-path="url(#d2ba621973)"><path fill="#ffffff" d="M 11.300781 24.441406 L 18.441406 24.441406 L 18.441406 25.621094 L 11.300781 25.621094 Z M 11.300781 24.441406 " fill-opacity="1" fill-rule="nonzero"/></g></g><g clip-path="url(#8eb41ae303)"><g clip-path="url(#ae53d69eb6)"><path fill="#ffffff" d="M 12.867188 26.488281 L 16.875 26.488281 L 16.875 27.664062 L 12.867188 27.664062 Z M 12.867188 26.488281 " fill-opacity="1" fill-rule="nonzero"/></g></g><g clip-path="url(#090a0f4f71)"><g clip-path="url(#41e4204d08)"><path fill="#ff66c4" d="M 6.351562 1.367188 L 26.613281 1.367188 L 26.613281 23.667969 L 6.351562 23.667969 Z M 6.351562 1.367188 " fill-opacity="1" fill-rule="nonzero"/></g></g><g clip-path="url(#b0be52fa6e)"><g clip-path="url(#a8b1be94ae)"><path fill="#ff66c4" d="M 6.351562 1.367188 L 26.613281 1.367188 L 26.613281 23.667969 L 6.351562 23.667969 Z M 6.351562 1.367188 " fill-opacity="1" fill-rule="nonzero"/></g></g><g clip-path="url(#6ea6d1ae4a)"><g clip-path="url(#86545f9a4b)"><path fill="#0a008e" d="M 6.351562 1.367188 L 26.613281 1.367188 L 26.613281 23.667969 L 6.351562 23.667969 Z M 6.351562 1.367188 " fill-opacity="1" fill-rule="nonzero"/></g></g><g clip-path="url(#956289ee14)"><g clip-path="url(#94f46bda0f)"><path fill="#0a008e" d="M 6.351562 1.367188 L 26.613281 1.367188 L 26.613281 23.667969 L 6.351562 23.667969 Z M 6.351562 1.367188 " fill-opacity="1" fill-rule="nonzero"/></g></g><g clip-path="url(#535aa8570f)"><g clip-path="url(#ca42ef7cae)"><path fill="#0a008e" d="M 6.351562 1.367188 L 26.613281 1.367188 L 26.613281 23.667969 L 6.351562 23.667969 Z M 6.351562 1.367188 " fill-opacity="1" fill-rule="nonzero"/></g></g><g clip-path="url(#36b87adac0)"><g clip-path="url(#ea1d9841ce)"><path fill="#0a008e" d="M 6.351562 1.367188 L 26.613281 1.367188 L 26.613281 23.667969 L 6.351562 23.667969 Z M 6.351562 1.367188 " fill-opacity="1" fill-rule="nonzero"/></g></g><g clip-path="url(#463a1874a2)"><g clip-path="url(#9820d30083)"><path fill="#0a008e" d="M 6.351562 1.367188 L 26.613281 1.367188 L 26.613281 23.667969 L 6.351562 23.667969 Z M 6.351562 1.367188 " fill-opacity="1" fill-rule="nonzero"/></g></g></svg>