<?xml version="1.0" encoding="UTF-8"?>
<svg xmlns="http://www.w3.org/2000/svg" xmlns:xlink="http://www.w3.org/1999/xlink" width="16px" height="16px" viewBox="0 0 16 16" version="1.1">
<defs>
<clipPath id="clip1">
  <path d="M 4.457031 7.015625 L 5.542969 7.015625 L 5.542969 7.316406 L 4.457031 7.316406 Z M 4.457031 7.015625 "/>
</clipPath>
<clipPath id="clip2">
  <path d="M 5.273438 7.015625 C 5.222656 7.015625 5.167969 7.015625 5.113281 7.015625 L 4.609375 7.015625 C 4.523438 7.019531 4.460938 7.085938 4.457031 7.164062 L 4.457031 7.167969 C 4.457031 7.167969 4.457031 7.171875 4.457031 7.171875 C 4.464844 7.257812 4.519531 7.308594 4.613281 7.3125 L 4.992188 7.3125 C 5.070312 7.3125 5.144531 7.316406 5.21875 7.316406 C 5.277344 7.316406 5.335938 7.3125 5.398438 7.308594 C 5.4375 7.308594 5.488281 7.28125 5.511719 7.246094 C 5.585938 7.152344 5.515625 7.023438 5.386719 7.015625 C 5.351562 7.015625 5.3125 7.015625 5.273438 7.015625 Z M 5.273438 7.015625 "/>
</clipPath>
<clipPath id="clip3">
  <path d="M 6.871094 10.769531 L 9.050781 10.769531 L 9.050781 11.128906 L 6.871094 11.128906 Z M 6.871094 10.769531 "/>
</clipPath>
<clipPath id="clip4">
  <path d="M 7.964844 10.769531 L 8.855469 10.769531 C 8.972656 10.769531 9.042969 10.835938 9.050781 10.941406 C 9.054688 11.039062 8.964844 11.121094 8.855469 11.128906 L 8.671875 11.128906 C 8.152344 11.128906 7.636719 11.128906 7.121094 11.128906 C 7.082031 11.128906 7.042969 11.125 7.007812 11.113281 C 6.921875 11.09375 6.863281 11.011719 6.871094 10.929688 C 6.882812 10.832031 6.949219 10.769531 7.046875 10.769531 Z M 7.964844 10.769531 "/>
</clipPath>
<clipPath id="clip5">
  <path d="M 7.347656 11.394531 L 8.570312 11.394531 L 8.570312 11.75 L 7.347656 11.75 Z M 7.347656 11.394531 "/>
</clipPath>
<clipPath id="clip6">
  <path d="M 7.96875 11.394531 L 8.390625 11.394531 C 8.5 11.394531 8.570312 11.464844 8.570312 11.570312 C 8.570312 11.679688 8.507812 11.746094 8.390625 11.75 L 7.535156 11.75 C 7.414062 11.746094 7.347656 11.679688 7.351562 11.570312 C 7.351562 11.457031 7.417969 11.394531 7.542969 11.394531 L 7.96875 11.394531 "/>
</clipPath>
<clipPath id="clip7">
  <path d="M 7.648438 5.492188 L 10.296875 5.492188 L 10.296875 10.132812 L 7.648438 10.132812 Z M 7.648438 5.492188 "/>
</clipPath>
<clipPath id="clip8">
  <path d="M 9.222656 7.925781 C 9.222656 7.171875 8.738281 6.636719 8.105469 6.558594 C 7.929688 6.539062 7.808594 6.421875 7.808594 6.265625 C 7.804688 6.101562 7.90625 5.980469 8.089844 5.953125 C 8.265625 5.929688 8.386719 5.84375 8.457031 5.683594 C 8.472656 5.648438 8.488281 5.617188 8.511719 5.585938 C 8.578125 5.496094 8.664062 5.472656 8.765625 5.511719 C 8.847656 5.542969 8.925781 5.574219 9.003906 5.613281 C 9.117188 5.667969 9.144531 5.738281 9.117188 5.867188 C 9.09375 5.976562 9.082031 6.085938 9.070312 6.199219 L 9.070312 6.214844 C 9.183594 6.433594 9.332031 6.609375 9.566406 6.6875 C 9.632812 6.707031 9.71875 6.675781 9.792969 6.667969 C 9.835938 6.660156 9.878906 6.640625 9.921875 6.632812 C 10.027344 6.605469 10.097656 6.636719 10.144531 6.734375 C 10.1875 6.824219 10.226562 6.914062 10.261719 7.007812 C 10.296875 7.097656 10.269531 7.175781 10.191406 7.230469 C 10.140625 7.265625 10.085938 7.292969 10.035156 7.324219 C 9.902344 7.398438 9.824219 7.507812 9.828125 7.667969 C 9.828125 7.777344 9.824219 7.890625 9.832031 8.003906 C 9.839844 8.117188 9.90625 8.199219 10 8.257812 L 10.167969 8.355469 C 10.277344 8.421875 10.304688 8.496094 10.261719 8.617188 L 10.167969 8.851562 C 10.113281 8.96875 10.027344 9.003906 9.898438 8.972656 C 9.820312 8.949219 9.734375 8.925781 9.652344 8.917969 C 9.554688 8.90625 9.472656 8.945312 9.402344 9.011719 C 9.328125 9.082031 9.253906 9.160156 9.179688 9.234375 C 9.082031 9.34375 9.046875 9.464844 9.097656 9.609375 L 9.140625 9.757812 C 9.167969 9.875 9.136719 9.949219 9.027344 10.003906 C 8.945312 10.042969 8.855469 10.082031 8.765625 10.113281 C 8.664062 10.148438 8.589844 10.121094 8.53125 10.03125 L 8.429688 9.855469 C 8.351562 9.738281 8.246094 9.679688 8.105469 9.679688 C 8.023438 9.679688 7.941406 9.679688 7.867188 9.65625 C 7.707031 9.601562 7.632812 9.457031 7.667969 9.296875 C 7.695312 9.164062 7.824219 9.0625 7.976562 9.066406 C 8.253906 9.074219 8.492188 8.988281 8.710938 8.828125 C 9.050781 8.574219 9.214844 8.226562 9.222656 7.925781 "/>
</clipPath>
<clipPath id="clip9">
  <path d="M 5.941406 5.320312 L 8.117188 5.320312 L 8.117188 10.472656 L 5.941406 10.472656 Z M 5.941406 5.320312 "/>
</clipPath>
<clipPath id="clip10">
  <path d="M 7.585938 10.445312 C 7.457031 10.445312 7.324219 10.457031 7.191406 10.445312 C 6.992188 10.421875 6.835938 10.273438 6.816406 10.078125 C 6.773438 9.699219 6.644531 9.351562 6.503906 9.007812 C 6.394531 8.746094 6.273438 8.492188 6.148438 8.242188 C 5.976562 7.898438 5.917969 7.539062 5.949219 7.15625 C 6.019531 6.296875 6.671875 5.5625 7.496094 5.371094 C 7.632812 5.339844 7.769531 5.332031 7.90625 5.320312 C 7.984375 5.316406 8.054688 5.347656 8.089844 5.421875 C 8.125 5.488281 8.121094 5.558594 8.070312 5.609375 C 8.035156 5.644531 7.976562 5.671875 7.921875 5.675781 C 7.570312 5.695312 7.253906 5.796875 6.972656 6.011719 C 6.644531 6.265625 6.421875 6.589844 6.335938 6.996094 C 6.253906 7.371094 6.289062 7.734375 6.46875 8.074219 C 6.730469 8.570312 6.945312 9.085938 7.097656 9.625 C 7.128906 9.738281 7.144531 9.859375 7.164062 9.976562 C 7.175781 10.066406 7.203125 10.097656 7.300781 10.097656 L 7.914062 10.101562 C 8.035156 10.101562 8.113281 10.171875 8.113281 10.277344 C 8.113281 10.378906 8.027344 10.453125 7.914062 10.457031 L 7.585938 10.457031 Z M 7.585938 10.445312 "/>
</clipPath>
<clipPath id="clip11">
  <path d="M 7.042969 6.859375 L 8.925781 6.859375 L 8.925781 8.757812 L 7.042969 8.757812 Z M 7.042969 6.859375 "/>
</clipPath>
<clipPath id="clip12">
  <path d="M 8.492188 7.804688 C 8.492188 7.527344 8.261719 7.296875 7.984375 7.296875 C 7.707031 7.300781 7.476562 7.53125 7.476562 7.808594 C 7.480469 8.074219 7.679688 8.324219 7.992188 8.320312 C 8.328125 8.316406 8.507812 8.039062 8.492188 7.804688 M 8.691406 7.359375 C 8.695312 7.355469 8.710938 7.351562 8.730469 7.351562 C 8.765625 7.347656 8.828125 7.332031 8.839844 7.351562 C 8.875 7.402344 8.894531 7.46875 8.910156 7.53125 C 8.914062 7.550781 8.871094 7.582031 8.847656 7.597656 C 8.742188 7.667969 8.695312 7.800781 8.75 7.914062 C 8.769531 7.953125 8.816406 7.984375 8.855469 8.011719 C 8.925781 8.0625 8.933594 8.089844 8.894531 8.183594 C 8.867188 8.25 8.835938 8.304688 8.753906 8.265625 C 8.589844 8.199219 8.371094 8.417969 8.453125 8.578125 C 8.484375 8.632812 8.457031 8.671875 8.398438 8.699219 C 8.261719 8.761719 8.261719 8.765625 8.179688 8.636719 C 8.101562 8.511719 7.878906 8.519531 7.796875 8.652344 C 7.730469 8.761719 7.722656 8.761719 7.605469 8.714844 C 7.515625 8.675781 7.503906 8.660156 7.535156 8.558594 C 7.566406 8.453125 7.511719 8.390625 7.441406 8.324219 C 7.378906 8.265625 7.316406 8.238281 7.230469 8.277344 C 7.171875 8.304688 7.128906 8.289062 7.097656 8.226562 C 7.042969 8.113281 7.046875 8.074219 7.113281 8.027344 C 7.234375 7.949219 7.261719 7.878906 7.234375 7.738281 C 7.222656 7.664062 7.175781 7.632812 7.117188 7.601562 C 7.046875 7.566406 7.042969 7.535156 7.078125 7.441406 C 7.113281 7.34375 7.136719 7.328125 7.214844 7.351562 C 7.347656 7.382812 7.503906 7.296875 7.535156 7.167969 C 7.542969 7.132812 7.53125 7.089844 7.519531 7.054688 C 7.496094 6.984375 7.511719 6.941406 7.582031 6.917969 L 7.648438 6.886719 C 7.699219 6.863281 7.734375 6.878906 7.765625 6.925781 C 7.847656 7.0625 7.921875 7.097656 8.066406 7.054688 C 8.113281 7.042969 8.152344 6.992188 8.183594 6.953125 C 8.242188 6.867188 8.265625 6.855469 8.367188 6.902344 C 8.457031 6.945312 8.472656 6.972656 8.441406 7.066406 C 8.402344 7.191406 8.539062 7.363281 8.691406 7.359375 "/>
</clipPath>
<clipPath id="clip13">
  <path d="M 5.441406 4.636719 L 6.296875 4.636719 L 6.296875 5.507812 L 5.441406 5.507812 Z M 5.441406 4.636719 "/>
</clipPath>
<clipPath id="clip14">
  <path d="M 6.296875 5.335938 C 6.292969 5.457031 6.164062 5.535156 6.078125 5.484375 L 6.019531 5.4375 C 5.84375 5.265625 5.671875 5.09375 5.5 4.921875 C 5.414062 4.832031 5.425781 4.722656 5.523438 4.667969 C 5.582031 4.632812 5.640625 4.640625 5.6875 4.6875 L 6.253906 5.253906 C 6.277344 5.277344 6.289062 5.320312 6.296875 5.335938 "/>
</clipPath>
<clipPath id="clip15">
  <path d="M 9.628906 4.636719 L 10.484375 4.636719 L 10.484375 5.523438 L 9.628906 5.523438 Z M 9.628906 4.636719 "/>
</clipPath>
<clipPath id="clip16">
  <path d="M 9.761719 5.519531 C 9.714844 5.480469 9.664062 5.449219 9.644531 5.402344 C 9.628906 5.363281 9.636719 5.292969 9.664062 5.261719 C 9.75 5.160156 9.851562 5.066406 9.945312 4.972656 L 10.210938 4.707031 C 10.296875 4.628906 10.367188 4.628906 10.433594 4.695312 C 10.496094 4.761719 10.492188 4.847656 10.417969 4.921875 L 9.910156 5.425781 C 9.875 5.464844 9.824219 5.484375 9.761719 5.519531 "/>
</clipPath>
<clipPath id="clip17">
  <path d="M 10.371094 7 L 11.460938 7 L 11.460938 7.328125 L 10.371094 7.328125 Z M 10.371094 7 "/>
</clipPath>
<clipPath id="clip18">
  <path d="M 10.683594 7.015625 C 10.664062 7.015625 10.640625 7.015625 10.617188 7.015625 L 10.515625 7.019531 C 10.433594 7.027344 10.375 7.097656 10.378906 7.171875 C 10.382812 7.253906 10.441406 7.308594 10.527344 7.3125 L 11.316406 7.3125 C 11.398438 7.308594 11.453125 7.257812 11.460938 7.179688 C 11.472656 7.113281 11.417969 7.039062 11.339844 7.023438 C 11.308594 7.015625 11.277344 7.015625 11.246094 7.015625 C 11.058594 7.015625 10.871094 7.015625 10.683594 7.015625 Z M 10.683594 7.015625 "/>
</clipPath>
<clipPath id="clip19">
  <path d="M 7.804688 3.808594 L 8.117188 3.808594 L 8.117188 4.882812 L 7.804688 4.882812 Z M 7.804688 3.808594 "/>
</clipPath>
<clipPath id="clip20">
  <path d="M 7.96875 3.808594 C 7.933594 3.808594 7.894531 3.820312 7.867188 3.835938 C 7.835938 3.859375 7.8125 3.921875 7.8125 3.964844 C 7.804688 4.214844 7.808594 4.460938 7.808594 4.710938 L 7.816406 4.75 C 7.832031 4.835938 7.882812 4.882812 7.957031 4.882812 C 7.964844 4.882812 7.972656 4.882812 7.976562 4.882812 C 8.050781 4.871094 8.101562 4.816406 8.105469 4.726562 L 8.105469 4.359375 C 8.105469 4.214844 8.109375 4.074219 8.101562 3.933594 C 8.097656 3.890625 8.054688 3.832031 8.019531 3.820312 C 8.003906 3.8125 7.988281 3.808594 7.972656 3.808594 Z M 7.96875 3.808594 "/>
</clipPath>
</defs>
<g id="surface1">
<g clip-path="url(#clip1)" clip-rule="nonzero">
<g clip-path="url(#clip2)" clip-rule="nonzero">
<path style=" stroke:none;fill-rule:nonzero;fill:rgb(3.921569%,0%,55.686275%);fill-opacity:1;" d="M 4.457031 7.015625 L 5.542969 7.015625 L 5.542969 7.316406 L 4.457031 7.316406 Z M 4.457031 7.015625 "/>
</g>
</g>
<g clip-path="url(#clip3)" clip-rule="nonzero">
<g clip-path="url(#clip4)" clip-rule="nonzero">
<path style=" stroke:none;fill-rule:nonzero;fill:rgb(100%,100%,100%);fill-opacity:1;" d="M 6.871094 10.769531 L 9.050781 10.769531 L 9.050781 11.128906 L 6.871094 11.128906 Z M 6.871094 10.769531 "/>
</g>
</g>
<g clip-path="url(#clip5)" clip-rule="nonzero">
<g clip-path="url(#clip6)" clip-rule="nonzero">
<path style=" stroke:none;fill-rule:nonzero;fill:rgb(100%,100%,100%);fill-opacity:1;" d="M 7.351562 11.394531 L 8.570312 11.394531 L 8.570312 11.753906 L 7.351562 11.753906 Z M 7.351562 11.394531 "/>
</g>
</g>
<g clip-path="url(#clip7)" clip-rule="nonzero">
<g clip-path="url(#clip8)" clip-rule="nonzero">
<path style=" stroke:none;fill-rule:nonzero;fill:rgb(100%,40%,76.862745%);fill-opacity:1;" d="M 5.363281 3.734375 L 11.542969 3.734375 L 11.542969 10.535156 L 5.363281 10.535156 Z M 5.363281 3.734375 "/>
</g>
</g>
<g clip-path="url(#clip9)" clip-rule="nonzero">
<g clip-path="url(#clip10)" clip-rule="nonzero">
<path style=" stroke:none;fill-rule:nonzero;fill:rgb(100%,40%,76.862745%);fill-opacity:1;" d="M 5.363281 3.734375 L 11.542969 3.734375 L 11.542969 10.535156 L 5.363281 10.535156 Z M 5.363281 3.734375 "/>
</g>
</g>
<g clip-path="url(#clip11)" clip-rule="nonzero">
<g clip-path="url(#clip12)" clip-rule="nonzero">
<path style=" stroke:none;fill-rule:nonzero;fill:rgb(3.921569%,0%,55.686275%);fill-opacity:1;" d="M 5.363281 3.734375 L 11.542969 3.734375 L 11.542969 10.535156 L 5.363281 10.535156 Z M 5.363281 3.734375 "/>
</g>
</g>
<g clip-path="url(#clip13)" clip-rule="nonzero">
<g clip-path="url(#clip14)" clip-rule="nonzero">
<path style=" stroke:none;fill-rule:nonzero;fill:rgb(3.921569%,0%,55.686275%);fill-opacity:1;" d="M 5.363281 3.734375 L 11.542969 3.734375 L 11.542969 10.535156 L 5.363281 10.535156 Z M 5.363281 3.734375 "/>
</g>
</g>
<g clip-path="url(#clip15)" clip-rule="nonzero">
<g clip-path="url(#clip16)" clip-rule="nonzero">
<path style=" stroke:none;fill-rule:nonzero;fill:rgb(3.921569%,0%,55.686275%);fill-opacity:1;" d="M 5.363281 3.734375 L 11.542969 3.734375 L 11.542969 10.535156 L 5.363281 10.535156 Z M 5.363281 3.734375 "/>
</g>
</g>
<g clip-path="url(#clip17)" clip-rule="nonzero">
<g clip-path="url(#clip18)" clip-rule="nonzero">
<path style=" stroke:none;fill-rule:nonzero;fill:rgb(3.921569%,0%,55.686275%);fill-opacity:1;" d="M 5.363281 3.734375 L 11.542969 3.734375 L 11.542969 10.535156 L 5.363281 10.535156 Z M 5.363281 3.734375 "/>
</g>
</g>
<g clip-path="url(#clip19)" clip-rule="nonzero">
<g clip-path="url(#clip20)" clip-rule="nonzero">
<path style=" stroke:none;fill-rule:nonzero;fill:rgb(3.921569%,0%,55.686275%);fill-opacity:1;" d="M 5.363281 3.734375 L 11.542969 3.734375 L 11.542969 10.535156 L 5.363281 10.535156 Z M 5.363281 3.734375 "/>
</g>
</g>
</g>
</svg>
